<svg width="12" height="13" viewBox="0 0 12 13" fill="none" xmlns="http://www.w3.org/2000/svg">
<path d="M5.99999 3.69055C6.2071 3.69055 6.37499 3.85844 6.37499 4.06555V6.56555C6.37499 6.77266 6.2071 6.94055 5.99999 6.94055C5.79289 6.94055 5.62499 6.77266 5.62499 6.56555V4.06555C5.62499 3.85844 5.79289 3.69055 5.99999 3.69055Z" fill="#F23030"/>
<path d="M5.99999 8.56555C6.27613 8.56555 6.49999 8.34169 6.49999 8.06555C6.49999 7.78941 6.27613 7.56555 5.99999 7.56555C5.72385 7.56555 5.49999 7.78941 5.49999 8.06555C5.49999 8.34169 5.72385 8.56555 5.99999 8.56555Z" fill="#F23030"/>
<path fill-rule="evenodd" clip-rule="evenodd" d="M4.1472 2.30377C4.68316 1.62302 5.25091 1.19055 5.99999 1.19055C6.74907 1.19055 7.31682 1.62302 7.85278 2.30377C8.37988 2.97327 8.93846 3.96366 9.65314 5.23082L9.87088 5.61689C10.4617 6.66437 10.9283 7.49169 11.1734 8.15574C11.4239 8.83435 11.4834 9.45051 11.1045 9.99402C10.7368 10.5214 10.1233 10.7372 9.34957 10.8391C8.57878 10.9406 7.54224 10.9406 6.21241 10.9406H5.78759C4.45776 10.9406 3.42119 10.9406 2.65041 10.8391C1.87665 10.7372 1.26318 10.5214 0.895495 9.99402C0.51659 9.45051 0.576092 8.83435 0.826568 8.15574C1.07167 7.49169 1.53829 6.66438 2.12909 5.6169L2.34681 5.23089C3.0615 3.9637 3.62009 2.97328 4.1472 2.30377ZM4.73649 2.76771C4.24948 3.38629 3.71852 4.32549 2.98247 5.63052L2.80064 5.95291C2.18753 7.03997 1.75184 7.81488 1.53017 8.41544C1.31135 9.00829 1.34169 9.32261 1.51074 9.5651C1.69101 9.82368 2.02936 10.0009 2.74829 10.0955C3.46429 10.1898 4.4513 10.1906 5.81816 10.1906H6.18182C7.54868 10.1906 8.53569 10.1898 9.25168 10.0955C9.97061 10.0009 10.309 9.82368 10.4892 9.5651C10.6583 9.32261 10.6886 9.00829 10.4698 8.41544C10.2481 7.81487 9.81244 7.03997 9.19933 5.95291L9.0175 5.63052C8.28145 4.32549 7.7505 3.38629 7.26349 2.76771C6.78101 2.15488 6.40628 1.94055 5.99999 1.94055C5.5937 1.94055 5.21897 2.15488 4.73649 2.76771Z" fill="#F23030"/>
</svg>
