<svg width="12" height="12" viewBox="0 0 12 12" fill="none" xmlns="http://www.w3.org/2000/svg">
<path fill-rule="evenodd" clip-rule="evenodd" d="M5.625 1.06557C5.625 0.85846 5.79289 0.690567 6 0.690567C8.96853 0.690567 11.375 3.09704 11.375 6.06557C11.375 9.0341 8.96853 11.4406 6 11.4406C3.03147 11.4406 0.625 9.0341 0.625 6.06557C0.625 5.85846 0.792893 5.69057 1 5.69057C1.20711 5.69057 1.375 5.85846 1.375 6.06557C1.375 8.61988 3.44568 10.6906 6 10.6906C8.55432 10.6906 10.625 8.61988 10.625 6.06557C10.625 3.51125 8.55432 1.44057 6 1.44057C5.79289 1.44057 5.625 1.27267 5.625 1.06557ZM6 4.19057C6.20711 4.19057 6.375 4.35846 6.375 4.56557V6.19057H8C8.20711 6.19057 8.375 6.35846 8.375 6.56557C8.375 6.77267 8.20711 6.94057 8 6.94057H6C5.79289 6.94057 5.625 6.77267 5.625 6.56557V4.56557C5.625 4.35846 5.79289 4.19057 6 4.19057Z" fill="#F27430"/>
<path fill-rule="evenodd" clip-rule="evenodd" d="M4.54979 1.26434C4.62437 1.45755 4.5282 1.67464 4.33499 1.74922C4.26428 1.77652 4.1944 1.80551 4.1254 1.83614C3.93611 1.92017 3.71453 1.83485 3.6305 1.64555C3.54646 1.45626 3.63179 1.23469 3.82108 1.15065C3.90134 1.11502 3.98263 1.0813 4.0649 1.04954C4.25811 0.974959 4.4752 1.07113 4.54979 1.26434ZM2.82385 2.1857C2.96668 2.33567 2.96089 2.57304 2.81092 2.71587C2.75608 2.76809 2.70253 2.82165 2.6503 2.87648C2.50747 3.02646 2.27011 3.03225 2.12013 2.88942C1.97016 2.74659 1.96437 2.50922 2.1072 2.35925C2.16783 2.29558 2.23001 2.2334 2.29368 2.17276C2.44365 2.02993 2.68102 2.03572 2.82385 2.1857ZM1.57999 3.69607C1.76928 3.7801 1.85461 4.00167 1.77057 4.19097C1.73994 4.25996 1.71095 4.32984 1.68365 4.40056C1.60907 4.59377 1.39198 4.68994 1.19877 4.61536C1.00556 4.54077 0.909392 4.32368 0.983976 4.13047C1.01574 4.0482 1.04946 3.9669 1.08509 3.88665C1.16912 3.69736 1.39069 3.61203 1.57999 3.69607Z" fill="#F27430"/>
</svg>
