<svg width="56" height="16" viewBox="0 0 56 16" fill="none" xmlns="http://www.w3.org/2000/svg">
<rect width="56" height="16" rx="8" fill="#F23030" fill-opacity="0.08"/>
<path d="M19.75 9.25246C19.75 11.5397 17.8559 13.3794 15.5688 13.2429C13.218 13.1025 11.6084 10.8418 11.9117 8.47869C12.0951 7.04109 12.7689 5.80831 13.5025 4.85244C13.6298 4.68554 13.7608 6.02832 13.8918 5.88039C14.0228 5.72865 15.2394 3.62346 15.6624 2.8838C15.741 2.74724 15.9206 2.70552 16.0479 2.80414C16.8976 3.44518 19.75 5.85384 19.75 9.25246Z" fill="#F23030"/>
<path d="M18.625 10.1942C18.625 11.7099 17.3055 12.9282 15.7004 12.8732C13.9681 12.8145 12.7797 11.2291 13.0343 9.596C13.4009 7.25465 15.8046 5.75 15.8046 5.75C15.8046 5.75 18.625 7.5152 18.625 10.1942Z" fill="#F59460"/>
<path d="M31.75 9.25246C31.75 11.5397 29.8559 13.3794 27.5688 13.2429C25.218 13.1025 23.6084 10.8418 23.9117 8.47869C24.0951 7.04109 24.7689 5.80831 25.5025 4.85244C25.6298 4.68554 25.7608 6.02832 25.8918 5.88039C26.0228 5.72865 27.2394 3.62346 27.6624 2.8838C27.741 2.74724 27.9206 2.70552 28.0479 2.80414C28.8976 3.44518 31.75 5.85384 31.75 9.25246Z" fill="#F23030"/>
<path d="M30.625 10.1942C30.625 11.7099 29.3055 12.9282 27.7004 12.8732C25.9681 12.8145 24.7797 11.2291 25.0343 9.596C25.4009 7.25465 27.8046 5.75 27.8046 5.75C27.8046 5.75 30.625 7.5152 30.625 10.1942Z" fill="#F59460"/>
<path d="M43.75 9.25246C43.75 11.5397 41.8559 13.3794 39.5688 13.2429C37.218 13.1025 35.6084 10.8418 35.9117 8.47869C36.0951 7.04109 36.7689 5.80831 37.5025 4.85244C37.6298 4.68554 37.7608 6.02832 37.8918 5.88039C38.0228 5.72865 39.2394 3.62346 39.6624 2.8838C39.741 2.74724 39.9206 2.70552 40.0479 2.80414C40.8976 3.44518 43.75 5.85384 43.75 9.25246Z" fill="#F23030"/>
<path d="M42.625 10.1942C42.625 11.7099 41.3055 12.9282 39.7004 12.8732C37.9681 12.8145 36.7797 11.2291 37.0343 9.596C37.4009 7.25465 39.8046 5.75 39.8046 5.75C39.8046 5.75 42.625 7.5152 42.625 10.1942Z" fill="#F59460"/>
</svg>
